<svg xmlns="http://www.w3.org/2000/svg" viewBox="0 0 512 512" role="img" aria-label="HomeTrack Viewer"><defs><linearGradient id="bg" x1="0" y1="0" x2="1" y2="1"><stop stop-color="#4f7cff"/><stop offset="1" stop-color="#0aa6b5"/></linearGradient><linearGradient id="mark" x1="0" y1="0" x2="0" y2="1"><stop stop-color="#ffffff"/><stop offset="1" stop-color="#dffcff"/></linearGradient></defs><rect width="512" height="512" rx="118" fill="url(#bg)"/><path d="M92 235 256 104l164 131v153a34 34 0 0 1-34 34H126a34 34 0 0 1-34-34V235Z" fill="none" stroke="url(#mark)" stroke-width="34" stroke-linejoin="round"/><path d="M112 334h100v88H112zm100-72h95v160h-95zm95 52h93v108h-93z" fill="none" stroke="#9ff4ee" stroke-width="20" stroke-linejoin="round" opacity=".95"/><path d="M256 176c-55 0-100 44-100 99 0 74 100 149 100 149s100-75 100-149c0-55-45-99-100-99Z" fill="#0b4fc2" stroke="#fff" stroke-width="14"/><circle cx="256" cy="274" r="35" fill="#fff"/><rect x="242" y="260" width="28" height="28" rx="7" fill="#0aa6b5"/></svg>